<svg version="1.1" id="Layer_1" xmlns="http://www.w3.org/2000/svg" xmlns:xlink="http://www.w3.org/1999/xlink" x="0px" y="0px"
	 width="100%" viewBox="0 0 247 204" enable-background="new 0 0 247 204" xml:space="preserve">
<path fill="#010000" opacity="1.000000" stroke="none" 
	d="
M146.000000,205.000000 
	C97.333336,205.000000 49.166672,205.000000 1.000006,205.000000 
	C1.000004,137.000000 1.000004,69.000015 1.000002,1.000016 
	C83.333321,1.000010 165.666641,1.000010 247.999969,1.000005 
	C247.999985,68.999985 247.999985,136.999969 248.000000,204.999969 
	C214.166672,205.000000 180.333328,205.000000 146.000000,205.000000 
M158.724518,185.245575 
	C194.355011,170.427872 216.346298,132.457428 212.224030,94.049644 
	C206.954239,44.950474 160.155746,8.449429 111.223785,16.316582 
	C57.760799,24.912224 24.221956,78.165428 40.159416,129.749588 
	C55.356056,178.935944 108.767685,205.365768 158.724518,185.245575 
z"/>
<path fill="#EB1E24" opacity="1.000000" stroke="none" 
	d="
M158.381439,185.419739 
	C108.767685,205.365768 55.356056,178.935944 40.159416,129.749588 
	C24.221956,78.165428 57.760799,24.912224 111.223785,16.316582 
	C160.155746,8.449429 206.954239,44.950474 212.224030,94.049644 
	C216.346298,132.457428 194.355011,170.427872 158.381439,185.419739 
M111.729851,77.500046 
	C111.729851,61.724728 111.729851,45.949413 111.729851,30.189184 
	C84.415848,29.872219 53.811802,65.887726 51.884575,98.795219 
	C49.354908,141.989441 82.751312,173.630234 111.729599,177.447083 
	C111.729599,144.436905 111.729599,111.468483 111.729851,77.500046 
M137.180862,66.499985 
	C137.180862,103.505264 137.180862,140.510544 137.180862,177.611893 
	C172.686722,172.132507 200.544601,134.402527 196.884796,97.526299 
	C193.493469,63.355324 163.631653,29.366026 137.181000,30.178310 
	C137.181000,41.936714 137.181000,53.718349 137.180862,66.499985 
z"/>
<path fill="#080708" opacity="1.000000" stroke="none" 
	d="
M111.729721,78.000053 
	C111.729599,111.468483 111.729599,144.436905 111.729599,177.447083 
	C82.751312,173.630234 49.354908,141.989441 51.884575,98.795219 
	C53.811802,65.887726 84.415848,29.872219 111.729851,30.189184 
	C111.729851,45.949413 111.729851,61.724728 111.729721,78.000053 
M65.563995,89.948799 
	C69.032326,98.298172 72.466896,106.661942 76.012932,114.978172 
	C76.442390,115.985359 77.311394,117.015411 78.251671,117.560547 
	C84.629402,121.258026 97.431541,119.034828 103.018631,112.999077 
	C90.571686,105.064804 78.210365,97.185127 65.563995,89.948799 
z"/>
<path fill="#070708" opacity="1.000000" stroke="none" 
	d="
M137.180939,65.999985 
	C137.181000,53.718349 137.181000,41.936714 137.181000,30.178310 
	C163.631653,29.366026 193.493469,63.355324 196.884796,97.526299 
	C200.544601,134.402527 172.686722,172.132507 137.180862,177.611893 
	C137.180862,140.510544 137.180862,103.505264 137.180939,65.999985 
M177.114334,106.600952 
	C179.256058,100.868752 181.397781,95.136543 183.539505,89.404343 
	C183.115845,89.178551 182.692169,88.952766 182.268494,88.726974 
	C170.050461,96.784943 157.832428,104.842918 145.526703,112.958717 
	C154.446075,122.329048 169.246170,120.760750 175.123093,110.312317 
	C175.690643,109.303268 176.280533,108.306786 177.114334,106.600952 
z"/>
<path fill="#F9F9F9" opacity="1.000000" stroke="none" 
	d="
M65.706528,89.627121 
	C78.210365,97.185127 90.571686,105.064804 103.018631,112.999077 
	C97.431541,119.034828 84.629402,121.258026 78.251671,117.560547 
	C77.311394,117.015411 76.442390,115.985359 76.012932,114.978172 
	C72.466896,106.661942 69.032326,98.298172 65.706528,89.627121 
z"/>
<path fill="#F8F8F8" opacity="1.000000" stroke="none" 
	d="
M176.987198,106.952713 
	C176.280533,108.306786 175.690643,109.303268 175.123093,110.312317 
	C169.246170,120.760750 154.446075,122.329048 145.526703,112.958717 
	C157.832428,104.842918 170.050461,96.784943 182.268494,88.726974 
	C182.692169,88.952766 183.115845,89.178551 183.539505,89.404343 
	C181.397781,95.136543 179.256058,100.868752 176.987198,106.952713 
z"/>
</svg>